# xmcd
#
# Track frame offsets:
#	150
#	21024
#	34813
#	53467
#	73069
#	95468
#	119241
#	136805
#	154373
#	174295
#	191156
#	209089
#
# Disc length: 3027 seconds
# Revision: 0
# Processed by: cddbd v1.5.2PL0 Copyright (c) Steve Scherf et al.
# Submitted via: dBpowerAMP V12.0
#
DISCID=ae0bd10c
DTITLE=Various Artist - The Blues Magazine: Stay Frosty
DYEAR=2016
DGENRE=Blues
TTITLE0=Big Boy Bloater - The Devils Tail
TTITLE1=Paul Benjamin Band - Ball And Chain
TTITLE2=Jeff Healey - Moodswing
TTITLE3=Broken Witt Rebels - Low
TTITLE4=Stevie Mimmo - Change
TTITLE5=Toronzo Cannon - Chickens Comin' Home To Roost
TTITLE6=Luther Dickinson - Bye and Bye I'm Going To See The King
TTITLE7=Will Wilde - Thirty Eight
TTITLE8=Supersonic Blues Machine - Miracle Man
TTITLE9=The Black Circles - She's Dynamite
TTITLE10=Buck and Evans - Slow Train
TTITLE11=The Della Grants - Red Mist
EXTD=
EXTT0=
EXTT1=
EXTT2=
EXTT3=
EXTT4=
EXTT5=
EXTT6=
EXTT7=
EXTT8=
EXTT9=
EXTT10=
EXTT11=
PLAYORDER=
